<mxfile host="app.diagrams.net" modified="2023-12-05T15:20:25.503Z" agent="Mozilla/5.0 (X11; Ubuntu; Linux x86_64; rv:109.0) Gecko/20100101 Firefox/118.0" etag="8wVC03GyMNni2aF41DQM" version="22.1.5" type="device">
  <diagram name="Page-1" id="2YBvvXClWsGukQMizWep">
    <mxGraphModel dx="1674" dy="1875" grid="1" gridSize="10" guides="1" tooltips="1" connect="1" arrows="1" fold="1" page="1" pageScale="1" pageWidth="850" pageHeight="1100" math="0" shadow="0">
      <root>
        <mxCell id="0" />
        <mxCell id="1" parent="0" />
        <mxCell id="aM9ryv3xv72pqoxQDRHE-1" value="&lt;div&gt;:Sender (iPhone)&lt;/div&gt;" style="shape=umlLifeline;perimeter=lifelinePerimeter;whiteSpace=wrap;html=1;container=0;dropTarget=0;collapsible=0;recursiveResize=0;outlineConnect=0;portConstraint=eastwest;newEdgeStyle={&quot;edgeStyle&quot;:&quot;elbowEdgeStyle&quot;,&quot;elbow&quot;:&quot;vertical&quot;,&quot;curved&quot;:0,&quot;rounded&quot;:0};size=45;" parent="1" vertex="1">
          <mxGeometry x="130" y="40" width="100" height="1010" as="geometry" />
        </mxCell>
        <mxCell id="aM9ryv3xv72pqoxQDRHE-2" value="" style="html=1;points=[];perimeter=orthogonalPerimeter;outlineConnect=0;targetShapes=umlLifeline;portConstraint=eastwest;newEdgeStyle={&quot;edgeStyle&quot;:&quot;elbowEdgeStyle&quot;,&quot;elbow&quot;:&quot;vertical&quot;,&quot;curved&quot;:0,&quot;rounded&quot;:0};" parent="aM9ryv3xv72pqoxQDRHE-1" vertex="1">
          <mxGeometry x="45" y="70" width="10" height="930" as="geometry" />
        </mxCell>
        <mxCell id="aM9ryv3xv72pqoxQDRHE-5" value="&lt;div&gt;:Receiver (MAC)&lt;/div&gt;" style="shape=umlLifeline;perimeter=lifelinePerimeter;whiteSpace=wrap;html=1;container=0;dropTarget=0;collapsible=0;recursiveResize=0;outlineConnect=0;portConstraint=eastwest;newEdgeStyle={&quot;edgeStyle&quot;:&quot;elbowEdgeStyle&quot;,&quot;elbow&quot;:&quot;vertical&quot;,&quot;curved&quot;:0,&quot;rounded&quot;:0};size=50;" parent="1" vertex="1">
          <mxGeometry x="480" y="40" width="100" height="1000" as="geometry" />
        </mxCell>
        <mxCell id="aM9ryv3xv72pqoxQDRHE-6" value="" style="html=1;points=[];perimeter=orthogonalPerimeter;outlineConnect=0;targetShapes=umlLifeline;portConstraint=eastwest;newEdgeStyle={&quot;edgeStyle&quot;:&quot;elbowEdgeStyle&quot;,&quot;elbow&quot;:&quot;vertical&quot;,&quot;curved&quot;:0,&quot;rounded&quot;:0};" parent="aM9ryv3xv72pqoxQDRHE-5" vertex="1">
          <mxGeometry x="45" y="80" width="10" height="910" as="geometry" />
        </mxCell>
        <mxCell id="yCxDXh_MjUkCu9cZjC5a-16" value="Switch / Add new IPv6" style="endArrow=classic;html=1;rounded=0;" parent="aM9ryv3xv72pqoxQDRHE-5" source="aM9ryv3xv72pqoxQDRHE-6" target="aM9ryv3xv72pqoxQDRHE-6" edge="1">
          <mxGeometry x="-0.0167" y="-61" width="50" height="50" relative="1" as="geometry">
            <mxPoint x="-10" y="390" as="sourcePoint" />
            <mxPoint x="-50" y="360" as="targetPoint" />
            <Array as="points">
              <mxPoint x="10" y="340" />
              <mxPoint x="10" y="390" />
              <mxPoint x="30" y="390" />
            </Array>
            <mxPoint as="offset" />
          </mxGeometry>
        </mxCell>
        <mxCell id="aM9ryv3xv72pqoxQDRHE-7" value="&lt;div&gt;mDNS (PTR _airdrop._tcp.local)&lt;br&gt;&lt;/div&gt;&lt;div&gt;ff02::fb&lt;/div&gt;" style="html=1;verticalAlign=bottom;endArrow=block;edgeStyle=elbowEdgeStyle;elbow=vertical;curved=0;rounded=0;" parent="1" source="aM9ryv3xv72pqoxQDRHE-2" target="aM9ryv3xv72pqoxQDRHE-6" edge="1">
          <mxGeometry x="0.0294" y="-10" relative="1" as="geometry">
            <mxPoint x="190" y="210" as="sourcePoint" />
            <Array as="points">
              <mxPoint x="455" y="210" />
              <mxPoint x="485" y="230" />
              <mxPoint x="385" y="220" />
              <mxPoint x="255" y="160" />
            </Array>
            <mxPoint x="530" y="210" as="targetPoint" />
            <mxPoint as="offset" />
          </mxGeometry>
        </mxCell>
        <mxCell id="OVtjpk0A2-jqffXC2TWz-1" value="BLE Connection Setup" style="edgeStyle=elbowEdgeStyle;rounded=0;orthogonalLoop=1;jettySize=auto;html=1;elbow=vertical;curved=0;startArrow=classic;startFill=1;" parent="1" source="aM9ryv3xv72pqoxQDRHE-2" edge="1">
          <mxGeometry relative="1" as="geometry">
            <mxPoint x="190" y="129.9957142857143" as="sourcePoint" />
            <mxPoint x="525" y="129.9957142857143" as="targetPoint" />
            <Array as="points">
              <mxPoint x="240" y="130" />
            </Array>
          </mxGeometry>
        </mxCell>
        <mxCell id="OVtjpk0A2-jqffXC2TWz-2" value="AWDL Synchronization" style="edgeStyle=elbowEdgeStyle;rounded=0;orthogonalLoop=1;jettySize=auto;html=1;elbow=vertical;curved=0;startArrow=classic;startFill=1;" parent="1" edge="1">
          <mxGeometry relative="1" as="geometry">
            <mxPoint x="185" y="155" as="sourcePoint" />
            <mxPoint x="525" y="155" as="targetPoint" />
          </mxGeometry>
        </mxCell>
        <mxCell id="OVtjpk0A2-jqffXC2TWz-4" value="" style="strokeWidth=2;html=1;shape=mxgraph.flowchart.annotation_2;align=left;labelPosition=right;pointerEvents=1;rotation=-180;" parent="1" vertex="1">
          <mxGeometry x="550" y="120" width="40" height="50" as="geometry" />
        </mxCell>
        <mxCell id="OVtjpk0A2-jqffXC2TWz-5" value="&lt;div&gt;Not observered;&amp;nbsp;&lt;/div&gt;&lt;div&gt;taken from Stute Paper&lt;/div&gt;" style="text;html=1;strokeColor=none;fillColor=none;align=center;verticalAlign=middle;whiteSpace=wrap;rounded=0;" parent="1" vertex="1">
          <mxGeometry x="600" y="130" width="150" height="30" as="geometry" />
        </mxCell>
        <mxCell id="aM9ryv3xv72pqoxQDRHE-3" value="select AirDrop" style="html=1;verticalAlign=bottom;startArrow=oval;endArrow=block;startSize=8;edgeStyle=elbowEdgeStyle;elbow=vertical;curved=0;rounded=0;" parent="1" edge="1">
          <mxGeometry relative="1" as="geometry">
            <mxPoint x="90" y="140.14" as="sourcePoint" />
            <mxPoint x="175" y="140.2828571428571" as="targetPoint" />
          </mxGeometry>
        </mxCell>
        <mxCell id="OVtjpk0A2-jqffXC2TWz-7" value="Discovery takes place if iPhone/iPad is set to Contact/Everyone mode" style="text;html=1;strokeColor=none;fillColor=none;align=center;verticalAlign=middle;whiteSpace=wrap;rounded=0;" parent="1" vertex="1">
          <mxGeometry x="10" y="150" width="150" height="60" as="geometry" />
        </mxCell>
        <mxCell id="OVtjpk0A2-jqffXC2TWz-9" value="" style="endArrow=none;dashed=1;html=1;dashPattern=1 3;strokeWidth=2;rounded=0;" parent="1" target="aM9ryv3xv72pqoxQDRHE-6" edge="1">
          <mxGeometry width="50" height="50" relative="1" as="geometry">
            <mxPoint x="185" y="180" as="sourcePoint" />
            <mxPoint x="530" y="180" as="targetPoint" />
          </mxGeometry>
        </mxCell>
        <mxCell id="OVtjpk0A2-jqffXC2TWz-10" value="Querying happens both in AWDL and WiFi Network; happens periodically (~30-60s) even without AirDrop actively selected but receive must be on" style="text;html=1;strokeColor=none;fillColor=none;align=center;verticalAlign=middle;whiteSpace=wrap;rounded=0;" parent="1" vertex="1">
          <mxGeometry x="550" y="210" width="220" height="80" as="geometry" />
        </mxCell>
        <mxCell id="yCxDXh_MjUkCu9cZjC5a-2" value="&lt;div&gt;mDNS (PTR cache flush iPad.local)&lt;/div&gt;&lt;div&gt;fe80::&amp;lt;ipad&amp;gt;&lt;/div&gt;&lt;div&gt;2001:4ca0::&amp;lt;ipad&amp;gt;&lt;/div&gt;&lt;div&gt;10.151.&amp;lt;ipad&amp;gt;&lt;br&gt;&lt;/div&gt;" style="edgeStyle=elbowEdgeStyle;rounded=0;orthogonalLoop=1;jettySize=auto;html=1;elbow=horizontal;curved=0;" parent="1" edge="1">
          <mxGeometry relative="1" as="geometry">
            <mxPoint x="525" y="259.4271428571429" as="sourcePoint" />
            <mxPoint x="185" y="259.4271428571429" as="targetPoint" />
          </mxGeometry>
        </mxCell>
        <mxCell id="yCxDXh_MjUkCu9cZjC5a-3" value="" style="endArrow=none;dashed=1;html=1;dashPattern=1 3;strokeWidth=2;rounded=0;" parent="1" edge="1">
          <mxGeometry width="50" height="50" relative="1" as="geometry">
            <mxPoint x="185" y="300" as="sourcePoint" />
            <mxPoint x="525" y="300" as="targetPoint" />
          </mxGeometry>
        </mxCell>
        <mxCell id="yCxDXh_MjUkCu9cZjC5a-4" value="&lt;div&gt;1. TCP/TLS connection&lt;/div&gt;&lt;div&gt;Authentication&lt;br&gt;AWDL0 Interface&lt;/div&gt;&lt;div&gt;fe80::&amp;lt;iphone&amp;gt; to fe80::&amp;lt;ipad&amp;gt;&lt;br&gt;&lt;/div&gt;" style="edgeStyle=elbowEdgeStyle;rounded=0;orthogonalLoop=1;jettySize=auto;html=1;elbow=vertical;curved=0;startArrow=classic;startFill=1;" parent="1" source="aM9ryv3xv72pqoxQDRHE-2" target="aM9ryv3xv72pqoxQDRHE-6" edge="1">
          <mxGeometry relative="1" as="geometry">
            <mxPoint x="190" y="349.9971428571429" as="sourcePoint" />
            <mxPoint x="530" y="349.9971428571429" as="targetPoint" />
            <Array as="points">
              <mxPoint x="510" y="350" />
            </Array>
          </mxGeometry>
        </mxCell>
        <mxCell id="yCxDXh_MjUkCu9cZjC5a-5" value="&lt;div&gt;mDNS (Query Response)&lt;/div&gt;&lt;div&gt;Service &quot;random string&quot; is at new AAAA from iPad&lt;br&gt;&lt;/div&gt;" style="edgeStyle=elbowEdgeStyle;rounded=0;orthogonalLoop=1;jettySize=auto;html=1;elbow=vertical;curved=0;startArrow=classic;startFill=1;endArrow=none;endFill=0;" parent="1" source="aM9ryv3xv72pqoxQDRHE-2" target="aM9ryv3xv72pqoxQDRHE-6" edge="1">
          <mxGeometry relative="1" as="geometry">
            <mxPoint x="190" y="410.0028571428571" as="sourcePoint" />
            <mxPoint x="530" y="410.0028571428571" as="targetPoint" />
            <Array as="points">
              <mxPoint x="350" y="450" />
              <mxPoint x="350" y="410" />
            </Array>
          </mxGeometry>
        </mxCell>
        <mxCell id="yCxDXh_MjUkCu9cZjC5a-6" value="&lt;div&gt;I think&amp;nbsp;&lt;/div&gt;&lt;div&gt;DNSSEC stuff&lt;/div&gt;" style="text;html=1;strokeColor=none;fillColor=none;align=center;verticalAlign=middle;whiteSpace=wrap;rounded=0;" parent="1" vertex="1">
          <mxGeometry x="540" y="450" width="80" height="30" as="geometry" />
        </mxCell>
        <mxCell id="yCxDXh_MjUkCu9cZjC5a-8" value="&lt;div&gt;mDNS (Query Response)&lt;/div&gt;&lt;div&gt;Service &quot;old random string&quot; is at old AAAA from iPad&lt;br&gt;&lt;/div&gt;" style="edgeStyle=elbowEdgeStyle;rounded=0;orthogonalLoop=1;jettySize=auto;html=1;elbow=vertical;curved=0;startArrow=classic;startFill=1;endArrow=none;endFill=0;" parent="1" source="aM9ryv3xv72pqoxQDRHE-2" target="aM9ryv3xv72pqoxQDRHE-6" edge="1">
          <mxGeometry relative="1" as="geometry">
            <mxPoint x="180" y="510" as="sourcePoint" />
            <mxPoint x="520" y="510" as="targetPoint" />
            <Array as="points">
              <mxPoint x="350" y="480" />
              <mxPoint x="345" y="450" />
            </Array>
          </mxGeometry>
        </mxCell>
        <mxCell id="yCxDXh_MjUkCu9cZjC5a-10" value="&lt;div&gt;2. TCP/TLS Connection&lt;/div&gt;&lt;div&gt;I don&#39;t know what for&lt;/div&gt;&lt;div&gt;Only happens in iPhone, iPad case&lt;br&gt;&lt;/div&gt;" style="edgeStyle=elbowEdgeStyle;rounded=0;orthogonalLoop=1;jettySize=auto;html=1;elbow=vertical;curved=0;" parent="1" source="aM9ryv3xv72pqoxQDRHE-2" target="aM9ryv3xv72pqoxQDRHE-6" edge="1">
          <mxGeometry relative="1" as="geometry">
            <Array as="points">
              <mxPoint x="350" y="540" />
            </Array>
          </mxGeometry>
        </mxCell>
        <mxCell id="yCxDXh_MjUkCu9cZjC5a-11" value="&lt;div&gt;QUIC Connection&lt;/div&gt;&lt;div&gt;to new IPv6 from iPad&lt;br&gt;&lt;/div&gt;&lt;div&gt;Data transfer&lt;br&gt;&lt;/div&gt;" style="edgeStyle=elbowEdgeStyle;rounded=0;orthogonalLoop=1;jettySize=auto;html=1;elbow=vertical;curved=0;startArrow=classic;startFill=1;" parent="1" source="aM9ryv3xv72pqoxQDRHE-2" target="aM9ryv3xv72pqoxQDRHE-6" edge="1">
          <mxGeometry relative="1" as="geometry">
            <Array as="points">
              <mxPoint x="400" y="610" />
            </Array>
          </mxGeometry>
        </mxCell>
        <mxCell id="yCxDXh_MjUkCu9cZjC5a-12" value="" style="endArrow=none;dashed=1;html=1;dashPattern=1 3;strokeWidth=2;rounded=0;" parent="1" source="aM9ryv3xv72pqoxQDRHE-2" target="aM9ryv3xv72pqoxQDRHE-6" edge="1">
          <mxGeometry width="50" height="50" relative="1" as="geometry">
            <mxPoint x="190" y="570" as="sourcePoint" />
            <mxPoint x="530" y="570" as="targetPoint" />
            <Array as="points">
              <mxPoint x="370" y="570" />
            </Array>
          </mxGeometry>
        </mxCell>
        <mxCell id="yCxDXh_MjUkCu9cZjC5a-13" value="" style="strokeWidth=2;html=1;shape=mxgraph.flowchart.annotation_2;align=left;labelPosition=right;pointerEvents=1;rotation=-180;" parent="1" vertex="1">
          <mxGeometry x="620" y="310" width="40" height="250" as="geometry" />
        </mxCell>
        <mxCell id="yCxDXh_MjUkCu9cZjC5a-14" value="&lt;div&gt;Authentication &amp;amp; contact info&lt;/div&gt;&lt;div&gt;exchange;&lt;/div&gt;&lt;div&gt;taken from Stute paper&lt;br&gt;&lt;/div&gt;" style="text;html=1;align=center;verticalAlign=middle;resizable=0;points=[];autosize=1;strokeColor=none;fillColor=none;" parent="1" vertex="1">
          <mxGeometry x="660" y="405" width="180" height="60" as="geometry" />
        </mxCell>
        <mxCell id="yCxDXh_MjUkCu9cZjC5a-18" value="&lt;div&gt;AWDL connection becomes unstable&lt;/div&gt;" style="text;html=1;align=center;verticalAlign=middle;resizable=0;points=[];autosize=1;strokeColor=none;fillColor=none;" parent="1" vertex="1">
          <mxGeometry x="550" y="680" width="220" height="30" as="geometry" />
        </mxCell>
        <mxCell id="yCxDXh_MjUkCu9cZjC5a-19" value="&lt;div&gt;ICMPv6 Neighbor Solicitation&lt;/div&gt;&lt;div&gt;on WiFi Interface&lt;br&gt;&lt;/div&gt;" style="edgeStyle=elbowEdgeStyle;rounded=0;orthogonalLoop=1;jettySize=auto;html=1;elbow=vertical;curved=0;" parent="1" source="aM9ryv3xv72pqoxQDRHE-2" target="aM9ryv3xv72pqoxQDRHE-6" edge="1">
          <mxGeometry relative="1" as="geometry">
            <Array as="points">
              <mxPoint x="350" y="660" />
            </Array>
          </mxGeometry>
        </mxCell>
        <mxCell id="yCxDXh_MjUkCu9cZjC5a-17" value="" style="verticalLabelPosition=bottom;verticalAlign=top;html=1;shape=mxgraph.basic.flash;fillColor=#f8cecc;strokeColor=#b85450;" parent="1" vertex="1">
          <mxGeometry x="350" y="720" width="20" height="40" as="geometry" />
        </mxCell>
        <mxCell id="yCxDXh_MjUkCu9cZjC5a-21" value="&lt;div&gt;ICMPv6 Neighbor Advertisement&lt;/div&gt;&lt;div&gt;on WiFi Interface&lt;br&gt;&lt;/div&gt;" style="edgeStyle=elbowEdgeStyle;rounded=0;orthogonalLoop=1;jettySize=auto;html=1;elbow=vertical;curved=0;" parent="1" source="aM9ryv3xv72pqoxQDRHE-6" target="aM9ryv3xv72pqoxQDRHE-2" edge="1">
          <mxGeometry relative="1" as="geometry">
            <Array as="points">
              <mxPoint x="350" y="700" />
            </Array>
          </mxGeometry>
        </mxCell>
        <mxCell id="yCxDXh_MjUkCu9cZjC5a-22" value="&lt;div&gt;AWDL connection breaks;&lt;/div&gt;&lt;div&gt;switch to WiFi interface&lt;/div&gt;" style="text;html=1;align=center;verticalAlign=middle;resizable=0;points=[];autosize=1;strokeColor=none;fillColor=none;" parent="1" vertex="1">
          <mxGeometry x="560" y="720" width="160" height="40" as="geometry" />
        </mxCell>
        <mxCell id="yCxDXh_MjUkCu9cZjC5a-23" value="&lt;div&gt;QUIC Connection Migration&lt;br&gt;&lt;/div&gt;&lt;div&gt;WiFI Interfaces&lt;br&gt;&lt;/div&gt;&lt;div&gt;Data transfer continues seamless&lt;br&gt;&lt;/div&gt;" style="edgeStyle=elbowEdgeStyle;rounded=0;orthogonalLoop=1;jettySize=auto;html=1;elbow=vertical;curved=0;startArrow=classic;startFill=1;" parent="1" source="aM9ryv3xv72pqoxQDRHE-2" target="aM9ryv3xv72pqoxQDRHE-6" edge="1">
          <mxGeometry relative="1" as="geometry">
            <mxPoint x="180" y="810" as="sourcePoint" />
            <mxPoint x="520" y="810" as="targetPoint" />
            <Array as="points">
              <mxPoint x="395" y="800" />
            </Array>
          </mxGeometry>
        </mxCell>
        <mxCell id="7W10EVZrkEFWbG0_Qhk3-3" value="AP1" style="image;points=[];aspect=fixed;html=1;align=center;shadow=0;dashed=0;image=img/lib/allied_telesis/wireless/Access_Point_Indoor.svg;" vertex="1" parent="1">
          <mxGeometry x="145.04999999999998" y="-240" width="43.3" height="64.6" as="geometry" />
        </mxCell>
        <mxCell id="7W10EVZrkEFWbG0_Qhk3-4" value="Actions performed" style="text;html=1;align=center;verticalAlign=middle;resizable=0;points=[];autosize=1;strokeColor=none;fillColor=none;" vertex="1" parent="1">
          <mxGeometry x="106.69999999999999" y="-330" width="120" height="30" as="geometry" />
        </mxCell>
        <mxCell id="7W10EVZrkEFWbG0_Qhk3-7" value="" style="html=1;verticalLabelPosition=bottom;labelBackgroundColor=#ffffff;verticalAlign=top;shadow=0;dashed=0;strokeWidth=1;shape=mxgraph.ios7.misc.iphone;strokeColor=#c0c0c0;" vertex="1" parent="1">
          <mxGeometry x="50" y="-100" width="30" height="50" as="geometry" />
        </mxCell>
        <mxCell id="7W10EVZrkEFWbG0_Qhk3-8" value="" style="html=1;verticalLabelPosition=bottom;labelBackgroundColor=#ffffff;verticalAlign=top;shadow=0;dashed=0;strokeWidth=1;shape=mxgraph.ios7.misc.ipad7inch;strokeColor=#c0c0c0;" vertex="1" parent="1">
          <mxGeometry x="250" y="-119.75" width="61.65" height="89.5" as="geometry" />
        </mxCell>
        <mxCell id="7W10EVZrkEFWbG0_Qhk3-13" value="" style="endArrow=none;dashed=1;html=1;rounded=0;" edge="1" parent="1">
          <mxGeometry width="50" height="50" relative="1" as="geometry">
            <mxPoint x="90" y="-110" as="sourcePoint" />
            <mxPoint x="140" y="-160" as="targetPoint" />
          </mxGeometry>
        </mxCell>
        <mxCell id="7W10EVZrkEFWbG0_Qhk3-14" value="" style="endArrow=none;dashed=1;html=1;rounded=0;" edge="1" parent="1">
          <mxGeometry width="50" height="50" relative="1" as="geometry">
            <mxPoint x="240" y="-120" as="sourcePoint" />
            <mxPoint x="200" y="-160" as="targetPoint" />
          </mxGeometry>
        </mxCell>
        <mxCell id="7W10EVZrkEFWbG0_Qhk3-15" value="" style="endArrow=none;dashed=1;html=1;rounded=0;" edge="1" parent="1">
          <mxGeometry width="50" height="50" relative="1" as="geometry">
            <mxPoint x="90" y="-70" as="sourcePoint" />
            <mxPoint x="240" y="-70" as="targetPoint" />
          </mxGeometry>
        </mxCell>
        <mxCell id="7W10EVZrkEFWbG0_Qhk3-16" value="State 1" style="text;html=1;align=center;verticalAlign=middle;resizable=0;points=[];autosize=1;strokeColor=none;fillColor=none;" vertex="1" parent="1">
          <mxGeometry x="136.7" y="-30" width="60" height="30" as="geometry" />
        </mxCell>
        <mxCell id="7W10EVZrkEFWbG0_Qhk3-17" value="AP1" style="image;points=[];aspect=fixed;html=1;align=center;shadow=0;dashed=0;image=img/lib/allied_telesis/wireless/Access_Point_Indoor.svg;" vertex="1" parent="1">
          <mxGeometry x="493.4" y="-239.75" width="43.3" height="64.6" as="geometry" />
        </mxCell>
        <mxCell id="7W10EVZrkEFWbG0_Qhk3-18" value="" style="html=1;verticalLabelPosition=bottom;labelBackgroundColor=#ffffff;verticalAlign=top;shadow=0;dashed=0;strokeWidth=1;shape=mxgraph.ios7.misc.iphone;strokeColor=#c0c0c0;" vertex="1" parent="1">
          <mxGeometry x="398.35" y="-99.75" width="30" height="50" as="geometry" />
        </mxCell>
        <mxCell id="7W10EVZrkEFWbG0_Qhk3-19" value="" style="html=1;verticalLabelPosition=bottom;labelBackgroundColor=#ffffff;verticalAlign=top;shadow=0;dashed=0;strokeWidth=1;shape=mxgraph.ios7.misc.ipad7inch;strokeColor=#c0c0c0;" vertex="1" parent="1">
          <mxGeometry x="598.35" y="-119.5" width="61.65" height="89.5" as="geometry" />
        </mxCell>
        <mxCell id="7W10EVZrkEFWbG0_Qhk3-20" value="" style="endArrow=none;dashed=1;html=1;rounded=0;" edge="1" parent="1">
          <mxGeometry width="50" height="50" relative="1" as="geometry">
            <mxPoint x="438.35" y="-109.75" as="sourcePoint" />
            <mxPoint x="488.35" y="-159.75" as="targetPoint" />
          </mxGeometry>
        </mxCell>
        <mxCell id="7W10EVZrkEFWbG0_Qhk3-21" value="" style="endArrow=none;dashed=1;html=1;rounded=0;" edge="1" parent="1">
          <mxGeometry width="50" height="50" relative="1" as="geometry">
            <mxPoint x="588.35" y="-119.75" as="sourcePoint" />
            <mxPoint x="548.35" y="-159.75" as="targetPoint" />
          </mxGeometry>
        </mxCell>
        <mxCell id="7W10EVZrkEFWbG0_Qhk3-23" value="" style="shape=flexArrow;endArrow=classic;html=1;rounded=0;" edge="1" parent="1">
          <mxGeometry width="50" height="50" relative="1" as="geometry">
            <mxPoint x="320" y="-130" as="sourcePoint" />
            <mxPoint x="380" y="-130" as="targetPoint" />
          </mxGeometry>
        </mxCell>
        <mxCell id="7W10EVZrkEFWbG0_Qhk3-24" value="AP1" style="image;points=[];aspect=fixed;html=1;align=center;shadow=0;dashed=0;image=img/lib/allied_telesis/wireless/Access_Point_Indoor.svg;" vertex="1" parent="1">
          <mxGeometry x="900" y="-240" width="43.3" height="64.6" as="geometry" />
        </mxCell>
        <mxCell id="7W10EVZrkEFWbG0_Qhk3-25" value="" style="html=1;verticalLabelPosition=bottom;labelBackgroundColor=#ffffff;verticalAlign=top;shadow=0;dashed=0;strokeWidth=1;shape=mxgraph.ios7.misc.iphone;strokeColor=#c0c0c0;" vertex="1" parent="1">
          <mxGeometry x="750" y="-90" width="30" height="50" as="geometry" />
        </mxCell>
        <mxCell id="7W10EVZrkEFWbG0_Qhk3-26" value="" style="html=1;verticalLabelPosition=bottom;labelBackgroundColor=#ffffff;verticalAlign=top;shadow=0;dashed=0;strokeWidth=1;shape=mxgraph.ios7.misc.ipad7inch;strokeColor=#c0c0c0;" vertex="1" parent="1">
          <mxGeometry x="950" y="-109.75" width="61.65" height="89.5" as="geometry" />
        </mxCell>
        <mxCell id="7W10EVZrkEFWbG0_Qhk3-27" value="" style="endArrow=none;dashed=1;html=1;rounded=0;" edge="1" parent="1">
          <mxGeometry width="50" height="50" relative="1" as="geometry">
            <mxPoint x="790" y="-100" as="sourcePoint" />
            <mxPoint x="800" y="-150" as="targetPoint" />
          </mxGeometry>
        </mxCell>
        <mxCell id="7W10EVZrkEFWbG0_Qhk3-28" value="" style="endArrow=none;dashed=1;html=1;rounded=0;" edge="1" parent="1">
          <mxGeometry width="50" height="50" relative="1" as="geometry">
            <mxPoint x="970" y="-120" as="sourcePoint" />
            <mxPoint x="940" y="-160" as="targetPoint" />
          </mxGeometry>
        </mxCell>
        <mxCell id="7W10EVZrkEFWbG0_Qhk3-29" value="AP2" style="image;points=[];aspect=fixed;html=1;align=center;shadow=0;dashed=0;image=img/lib/allied_telesis/wireless/Access_Point_Indoor.svg;" vertex="1" parent="1">
          <mxGeometry x="790" y="-240" width="43.3" height="64.6" as="geometry" />
        </mxCell>
        <mxCell id="7W10EVZrkEFWbG0_Qhk3-30" value="" style="endArrow=none;dashed=1;html=1;rounded=0;" edge="1" parent="1">
          <mxGeometry width="50" height="50" relative="1" as="geometry">
            <mxPoint x="840" y="-210" as="sourcePoint" />
            <mxPoint x="890" y="-210" as="targetPoint" />
          </mxGeometry>
        </mxCell>
        <mxCell id="7W10EVZrkEFWbG0_Qhk3-31" value="" style="shape=flexArrow;endArrow=classic;html=1;rounded=0;" edge="1" parent="1">
          <mxGeometry width="50" height="50" relative="1" as="geometry">
            <mxPoint x="670" y="-129.75" as="sourcePoint" />
            <mxPoint x="730" y="-129.75" as="targetPoint" />
          </mxGeometry>
        </mxCell>
      </root>
    </mxGraphModel>
  </diagram>
</mxfile>
